<svg xmlns="http://www.w3.org/2000/svg" width="704" height="128" viewBox="0 0 704 128"><path fill="#092E55" d="M163 127h4v-31h-4v31zm36-8l-16.4-23h-3.6v31h4v-24.1l16.5 24.1h3.5v-31h-4v23zm-20-63v-3h-16v30h16v-4h-12v-10h9.8l-.6-4h-9.2v-9h12zm66 71h17v-4h-13v-10h10.5l-.6-4h-9.9v-9h13v-4h-17v31zm41.8-59.1c0-9.4-5.4-15.7-14-15.7-8.5 0-14.1 6.4-14.1 15.8s5.4 15.7 14 15.7c8.7 0 14.1-6.5 14.1-15.8zm-23.7 0c0-7.3 3.7-12 9.7-12 6 0 9.7 4.7 9.7 12s-3.7 12-9.7 12c-6 0-9.7-4.7-9.7-12zm-50.1-14.9h-4v22.5l-16.1-22.5h-3.9v30h4v-23.6l16.8 23.6h3.2v-30zm-1 43v4h10v27h4v-27h9.9l-.6-4h-23.3zm166-92h-9v34h9v-34zm-30.2 34.2c4.6 0 9.2-1.3 12.2-3.5v-16.7h-13.9l1 7h6v5.5c-2 .7-2.7 1.1-4.6 1.1-5.8 0-8.7-4.4-8.7-10.7 0-6.2 2.8-10.5 8.5-10.5 3.4 0 6.4 1.3 8.9 2.9l1.1-7.2c-2.7-1.5-6.1-2.5-10.2-2.5-10.3 0-16.6 7-16.6 17.3-.1 10.3 5.7 17.3 16.3 17.3zm-23.8-7.2h-13v-7h11l-1.1-7h-9.9v-6h13v-7h-21v34h21v-7zm-84-5h2.4l7.3 11.8 8.8-1.4-8.2-12.3c4-1.7 6.3-4.9 6.3-9.6 0-6.9-4.7-10.6-12.8-10.6h-11.8v34h8v-11.9zm0-16h2.9c3.6 0 5.5 1.8 5.5 4.9 0 3.2-2 5.1-5.6 5.1h-2.8v-10zm262 60h9.6l-.6-4h-9v-10h11v-3h-15v30h4v-13zm-325.3-31.9c3.9 0 7-1 9.7-2.6l-1.1-6.9c-2.5 1.5-4.9 2.6-7.6 2.6-5.2 0-8.8-3.9-8.8-10.4 0-6.4 3.3-10.3 8.6-10.3 2.9 0 5.2 1.2 7.2 2.7l1.2-7.4c-2.4-1.4-5.3-2.2-8.8-2.2-10.1 0-16.4 7-16.4 17.3 0 10.5 6 17.2 16 17.2zm-176.7 25.7v.3c.2 35.3 29 63.9 64 63.9h64v-128h-64c-35 0-63.8 28.6-64 63.8zm127.3.2c0 35-28.3 63.6-63.3 63.7v-127.5c35 .1 63.3 28.8 63.3 63.8zm75.2-33h11.5l2.5 7.1 8.4-1.5-11.7-32.6h-9.1l-12 34h8.1l2.3-7zm5.7-18.6l3.7 11.6h-7.5l3.8-11.6zm41.3 55.6c0-8.9-5.4-15-16-15h-8.5v30h8.3c10.4 0 16.2-6 16.2-15zm-20.5-12h4.6c7 0 11.6 3.9 11.6 11.5 0 7.8-4.4 11.5-11.7 11.5h-4.5v-23zm364 71h17v-4h-12v-10h9.7l-.6-4h-9.1v-9h12v-4h-17v31zm-63-4v-27h-4v31h15.9l-.6-4h-11.3zm-98.4-27.4c-8.5 0-14.1 6.4-14.1 15.8s5.4 15.7 14 15.7 14.1-6.4 14.1-15.8c0-9.3-5.4-15.7-14-15.7zm0 27.8c-6 0-9.7-4.7-9.7-12s3.7-12 9.7-12c6 0 9.7 4.7 9.7 12s-3.7 12-9.7 12zm69.4-27.4l-11.9 31h4.3l3.4-10h12.4l3.6 9.7 4.1-.8-11.7-29.9h-4.2zm-2.9 18l4.9-12.9 4.8 12.9h-9.7zm-22.1 5l-16.2-23h-3.8v31h4v-24.1l16.6 24.1h3.4v-31h-4v23zm-16-36h4v-27h10.3l-.6-3h-23.7v3h10v27zm76-30.9c-8.5 0-14.1 6.4-14.1 15.8s5.4 15.7 14 15.7 14.1-6.4 14.1-15.8c-.1-9.3-5.4-15.7-14-15.7zm-.1 27.8c-6 0-9.7-4.7-9.7-12s3.7-12 9.7-12c6 0 9.7 4.7 9.7 12 .1 7.3-3.6 12-9.7 12zm29.1-9.9h2.7l9.2 13.3 4.4-.9-9-12.7c4-1.1 6.7-3.6 6.7-8.2 0-5.6-3.9-8.5-10.1-8.5h-8.9v30h5v-13zm0-14h3.5c4.1 0 6.1 2.2 6.1 5.5 0 3.4-2.6 5.5-6.6 5.5h-3v-11zm102.7 67.4c-6.1 0-9.8-4.6-9.8-11.9 0-7.3 3.7-12 9.8-12 3.3 0 5.9 1.3 8.1 3l.6-4.2c-2.3-1.6-5-2.5-8.6-2.5-8.6 0-14.2 6.4-14.2 15.8s5.5 15.7 14.1 15.7c3.5 0 6.9-1.2 9.2-3l-.6-3.9c-2.4 1.7-5.3 3-8.6 3zm36.3-23.4v-4h-17v31h17v-4h-13v-10h10.4l-.6-4h-9.8v-9h13zm-74.4-4l-11.9 31h4.3l3.4-10h12.4l3.6 9.7 4.1-.8-11.7-29.9h-4.2zm-2.8 18l4.9-12.9 4.8 12.9h-9.7zm-53.4-18h-8.4v31h5v-13h2.7c6.6 0 11-3.1 11-9.3 0-5.6-3.8-8.7-10.3-8.7zm-.4 15h-3v-11h3.2c4.1 0 6.3 1.9 6.3 5.4.1 3.8-2.4 5.6-6.5 5.6zm-182-28h16v-4h-12v-10h9.9l-.6-4h-9.3v-9h12v-3h-16v30zm-58.4-30l-6.6 23.9-7.8-23.9h-4.1l-7.8 23.7-6.8-24.3-4.1.7 9 29.8h3.4l8.2-24.8 8.2 24.8h3.5l9.2-30h-4.3zm13.7 43l-11.9 31h4.3l3.4-10h12.4l3.6 9.7 4.1-.8-11.7-29.9h-4.2zm-2.8 18l4.9-12.9 4.8 12.9h-9.7zm-22.5 5l-15.9-23h-4.1v31h4v-24.1l17 24.1h3v-31h-4v23zm-35-96.2l-12.6-18.8h-8.4v34h8v-20.4l13.3 20.4h6.7v-34h-7v18.8zm89.7 60.2h4l-2.4-30h-5.1l-9.5 25-9.5-25h-5.1l-2.4 30h3.9l1.9-24.6 9.5 24.6h3.3l9.5-24.6 1.9 24.6zm-6.7 13v4h10v27h4v-27h10.2l-.6-4h-23.6zm27-72h10.4l-1.1-7h-9.3v-6h12v-7h-20v34h21v-7h-13v-7zm25 35.4l16.9 23.6h3.1v-30h-4v22.5l-16-22.5h-4v30h4v-23.6zm-130.7 45.3c0-5.6-3.9-8.7-10.1-8.7h-8.2v31h4v-13h3.1l9.2 13 4.4-1-9-12.8c3.9-1 6.6-3.8 6.6-8.5zm-14.3 5.3v-10h4c4.1 0 6.1 1.7 6.1 5 0 3.4-2.6 5-6.6 5h-3.5zm127 17h4v-31h-4v31z"/></svg>