<?xml version="1.0" encoding="UTF-8" standalone="no"?>
<svg width="100px" height="100px" viewBox="0 0 100 100" version="1.1" xmlns="http://www.w3.org/2000/svg" xmlns:xlink="http://www.w3.org/1999/xlink">
    <!-- Generator: Sketch 3.7.2 (28276) - http://www.bohemiancoding.com/sketch -->
    <title>Artboard 1</title>
    <desc>Created with Sketch.</desc>
    <defs></defs>
    <g id="Page-1" stroke="none" stroke-width="1" fill="none" fill-rule="evenodd">
        <g id="Artboard-1" fill="#595651">
            <g id="icon-water" transform="translate(0.000000, 17.000000)">
                <g id="Page-1">
                    <g id="noun_17412_cc">
                        <path d="M100,34.885 C98.264,35.579 96.527,36.274 94.443,36.274 C90.277,36.274 87.5,33.498 83.333,33.498 C79.167,33.498 76.389,36.274 72.223,36.274 C68.057,36.274 65.278,33.498 61.112,33.498 C56.946,33.498 54.169,36.274 50.002,36.274 C45.835,36.274 43.058,33.498 38.891,33.498 C34.724,33.498 31.947,36.274 27.78,36.274 C23.613,36.274 20.836,33.498 16.669,33.498 C12.502,33.498 9.725,36.274 5.558,36.274 C3.475,36.274 1.739,35.584 0.002,34.888 L0.002,43.221 C1.738,43.915 3.474,44.608 5.558,44.608 C9.725,44.608 12.502,41.831 16.669,41.831 C20.836,41.831 23.614,44.608 27.78,44.608 C31.946,44.608 34.724,41.831 38.891,41.831 C43.058,41.831 45.836,44.608 50.002,44.608 C54.169,44.608 56.946,41.831 61.112,41.831 C65.278,41.831 68.057,44.608 72.223,44.608 C76.389,44.608 79.167,41.831 83.333,41.831 C87.5,41.831 90.277,44.608 94.443,44.608 C96.527,44.608 98.263,43.915 100,43.219 L100,34.885 L100,34.885 L100,34.885 Z" id="Shape"></path>
                        <path d="M100,18.272 C98.264,18.967 96.527,19.661 94.443,19.661 C90.277,19.661 87.5,16.886 83.333,16.886 C79.167,16.886 76.389,19.661 72.223,19.661 C68.057,19.661 65.278,16.886 61.112,16.886 C56.946,16.886 54.169,19.661 50.002,19.661 C45.835,19.661 43.058,16.886 38.891,16.886 C34.724,16.886 31.947,19.661 27.78,19.661 C23.613,19.661 20.836,16.886 16.669,16.886 C12.502,16.886 9.724,19.66 5.557,19.66 C3.474,19.66 1.738,18.971 0.001,18.275 L0.001,26.607 C1.737,27.302 3.473,27.994 5.557,27.994 C9.724,27.994 12.501,25.217 16.668,25.217 C20.835,25.217 23.613,27.994 27.779,27.994 C31.945,27.994 34.723,25.217 38.89,25.217 C43.057,25.217 45.835,27.994 50.001,27.994 C54.168,27.994 56.945,25.217 61.111,25.217 C65.277,25.217 68.056,27.994 72.222,27.994 C76.388,27.994 79.166,25.217 83.332,25.217 C87.499,25.217 90.276,27.994 94.442,27.994 C96.526,27.994 98.262,27.301 99.999,26.605 L99.999,18.272 L100,18.272 L100,18.272 Z" id="Shape"></path>
                        <path d="M94.443,2.994 C90.277,2.994 87.5,0.218 83.333,0.218 C79.167,0.218 76.389,2.994 72.223,2.994 C68.057,2.994 65.278,0.218 61.112,0.218 C56.946,0.218 54.169,2.994 50.002,2.994 C45.835,2.994 43.058,0.218 38.891,0.218 C34.724,0.218 31.947,2.994 27.78,2.994 C23.613,2.994 20.836,0.218 16.669,0.218 C12.502,0.218 9.725,2.994 5.558,2.994 C3.475,2.994 1.739,2.304 0.002,1.608 L0.002,9.941 C1.738,10.635 3.474,11.328 5.558,11.328 C9.725,11.328 12.502,8.55 16.669,8.55 C20.836,8.55 23.614,11.328 27.78,11.328 C31.946,11.328 34.724,8.55 38.891,8.55 C43.058,8.55 45.836,11.328 50.002,11.328 C54.169,11.328 56.946,8.55 61.112,8.55 C65.278,8.55 68.057,11.328 72.223,11.328 C76.389,11.328 79.167,8.55 83.333,8.55 C87.5,8.55 90.277,11.328 94.443,11.328 C96.527,11.328 98.263,10.635 100,9.939 L100,1.605 C98.264,2.299 96.527,2.994 94.443,2.994 Z" id="Shape"></path>
                    </g>
                </g>
            </g>
        </g>
    </g>
</svg>